<svg width="33" height="25" viewBox="0 0 33 25" fill="none" xmlns="http://www.w3.org/2000/svg">
<rect x="0.5" y="0.5" width="32" height="24" rx="4" fill="#7D47EF"/>
<g clip-path="url(#clip0_3364_2314)">
<path d="M13.1667 16.4997C12.4334 16.4997 11.84 17.0997 11.84 17.833C11.84 18.5663 12.4334 19.1663 13.1667 19.1663C13.9 19.1663 14.5 18.5663 14.5 17.833C14.5 17.0997 13.9 16.4997 13.1667 16.4997ZM9.16669 6.49967C9.16669 6.86634 9.46669 7.16634 9.83335 7.16634H10.5L12.9 12.2263L12 13.853C11.5134 14.7463 12.1534 15.833 13.1667 15.833H20.5C20.8667 15.833 21.1667 15.533 21.1667 15.1663C21.1667 14.7997 20.8667 14.4997 20.5 14.4997H13.1667L13.9 13.1663H18.8667C19.3667 13.1663 19.8067 12.893 20.0334 12.4797L22.42 8.15301C22.6667 7.71301 22.3467 7.16634 21.84 7.16634H11.9734L11.5267 6.21301C11.42 5.97967 11.18 5.83301 10.9267 5.83301H9.83335C9.46669 5.83301 9.16669 6.13301 9.16669 6.49967ZM19.8334 16.4997C19.1 16.4997 18.5067 17.0997 18.5067 17.833C18.5067 18.5663 19.1 19.1663 19.8334 19.1663C20.5667 19.1663 21.1667 18.5663 21.1667 17.833C21.1667 17.0997 20.5667 16.4997 19.8334 16.4997Z" fill="white"/>
</g>
<defs>
<clipPath id="clip0_3364_2314">
<rect width="16" height="16" fill="white" transform="translate(8.5 4.5)"/>
</clipPath>
</defs>
</svg>
