<svg width="24" height="24" viewBox="0 0 24 24" fill="none" xmlns="http://www.w3.org/2000/svg">
<circle cx="12" cy="12" r="12" fill="#F0F0F0"/>
<g clip-path="url(#clip0_3197_1583)">
<path d="M12 8.66667V7.33333C12 6.6 11.4 6 10.6667 6H6.66671C5.93337 6 5.33337 6.6 5.33337 7.33333V16.6667C5.33337 17.4 5.93337 18 6.66671 18H17.3334C18.0667 18 18.6667 17.4 18.6667 16.6667V10C18.6667 9.26667 18.0667 8.66667 17.3334 8.66667H12ZM8.00004 16.6667H6.66671V15.3333H8.00004V16.6667ZM8.00004 14H6.66671V12.6667H8.00004V14ZM8.00004 11.3333H6.66671V10H8.00004V11.3333ZM8.00004 8.66667H6.66671V7.33333H8.00004V8.66667ZM10.6667 16.6667H9.33337V15.3333H10.6667V16.6667ZM10.6667 14H9.33337V12.6667H10.6667V14ZM10.6667 11.3333H9.33337V10H10.6667V11.3333ZM10.6667 8.66667H9.33337V7.33333H10.6667V8.66667ZM16.6667 16.6667H12V15.3333H13.3334V14H12V12.6667H13.3334V11.3333H12V10H16.6667C17.0334 10 17.3334 10.3 17.3334 10.6667V16C17.3334 16.3667 17.0334 16.6667 16.6667 16.6667ZM16 11.3333H14.6667V12.6667H16V11.3333ZM16 14H14.6667V15.3333H16V14Z" fill="url(#paint0_linear_3197_1583)"/>
</g>
<defs>
<linearGradient id="paint0_linear_3197_1583" x1="12" y1="6" x2="12" y2="18" gradientUnits="userSpaceOnUse">
<stop stop-color="#7D47EF"/>
<stop offset="1" stop-color="#A57AFE"/>
</linearGradient>
<clipPath id="clip0_3197_1583">
<rect width="16" height="16" fill="white" transform="translate(4 4)"/>
</clipPath>
</defs>
</svg>
