<svg id="Layer_1" data-name="Layer 1" xmlns="http://www.w3.org/2000/svg" xmlns:xlink="http://www.w3.org/1999/xlink" viewBox="0 0 1080 1080"><defs><style>.cls-1{fill:url(#Degradado_sin_nombre_2009);}.cls-2{fill:url(#Degradado_sin_nombre_2009-2);}.cls-3{fill:url(#Degradado_sin_nombre_2009-3);}.cls-4{fill:url(#Degradado_sin_nombre_2009-4);}.cls-5{fill:url(#Degradado_sin_nombre_2009-5);}.cls-6{fill:url(#Degradado_sin_nombre_2065);}.cls-7{fill:url(#Degradado_sin_nombre_2065-2);}.cls-8{fill:url(#Degradado_sin_nombre_2065-3);}.cls-9{fill:url(#Degradado_sin_nombre_2065-4);}</style><linearGradient id="Degradado_sin_nombre_2009" x1="440.62" y1="262.87" x2="390.36" y2="486.29" gradientUnits="userSpaceOnUse"><stop offset="0" stop-color="#00ffaf"/><stop offset="0.06" stop-color="#00edad"/><stop offset="0.32" stop-color="#00a6a7"/><stop offset="0.55" stop-color="#006ea2"/><stop offset="0.75" stop-color="#00469f"/><stop offset="0.91" stop-color="#002d9d"/><stop offset="1" stop-color="#00249c"/></linearGradient><linearGradient id="Degradado_sin_nombre_2009-2" x1="442.05" y1="430.56" x2="386.74" y2="676.46" xlink:href="#Degradado_sin_nombre_2009"/><linearGradient id="Degradado_sin_nombre_2009-3" x1="714.92" y1="503.6" x2="650.61" y2="414.3" xlink:href="#Degradado_sin_nombre_2009"/><linearGradient id="Degradado_sin_nombre_2009-4" x1="347.34" y1="383.33" x2="738.63" y2="383.33" xlink:href="#Degradado_sin_nombre_2009"/><linearGradient id="Degradado_sin_nombre_2009-5" x1="347.34" y1="534.14" x2="791.06" y2="534.14" xlink:href="#Degradado_sin_nombre_2009"/><linearGradient id="Degradado_sin_nombre_2065" x1="301.59" y1="720.54" x2="948.01" y2="720.54" gradientUnits="userSpaceOnUse"><stop offset="0" stop-color="#0fd"/><stop offset="0.16" stop-color="#2bcae4"/><stop offset="0.39" stop-color="#6383ee"/><stop offset="0.6" stop-color="#904bf5"/><stop offset="0.78" stop-color="#b123fa"/><stop offset="0.91" stop-color="#c50afe"/><stop offset="1" stop-color="#cc01ff"/></linearGradient><linearGradient id="Degradado_sin_nombre_2065-2" x1="301.59" y1="720.84" x2="948.01" y2="720.84" xlink:href="#Degradado_sin_nombre_2065"/><linearGradient id="Degradado_sin_nombre_2065-3" x1="301.59" y1="720.64" x2="948.01" y2="720.64" xlink:href="#Degradado_sin_nombre_2065"/><linearGradient id="Degradado_sin_nombre_2065-4" x1="301.59" y1="720.74" x2="948.01" y2="720.74" xlink:href="#Degradado_sin_nombre_2065"/></defs><path class="cls-1" d="M439.09,367.62H482V307.28H439.09A91.75,91.75,0,0,0,347.34,399v60.34A91.75,91.75,0,0,1,439.09,367.62Z"/><path class="cls-2" d="M439.09,478.18a91.75,91.75,0,0,0-91.75,91.76v78.68L482,544.84V478.18Z"/><path class="cls-3" d="M601.55,478.14l32.69-.42c11,0,27,11.75,27,30.17s-16,30.16-27,30.16h21c65.42,0,129.64-63.34,104.74-118.39h0a141.24,141.24,0,0,0-31.74-29A140.79,140.79,0,0,1,601.55,478.14Z"/><path class="cls-4" d="M347.34,569.94a91.75,91.75,0,0,1,91.75-91.76H597.9a140.73,140.73,0,1,0,0-281.46H439.09a91.74,91.74,0,0,0-91.75,91.75V399a91.75,91.75,0,0,1,91.75-91.75H581.81c11,0,27,11.75,27,30.17s-16,30.17-27,30.17H439.09a91.75,91.75,0,0,0-91.75,91.75V569.94Z"/><path class="cls-5" d="M347.34,648.62h303A140.73,140.73,0,0,0,760,419.65h0c24.9,55-39.32,118.39-104.74,118.39H439.09a91.75,91.75,0,0,0-91.75,91.75Z"/><path class="cls-6" d="M337.34,725.29c-19.27,0-28.95-6.07-28.95-18.19v-3.82c0-12.23,9.68-18.19,28.95-18.19h9.78c3.13,0,3.81,1.76,3.81,5.28s-.68,5.28-3.81,5.28H337c-11.44,0-15.74,3.33-15.74,7.63v3.82c0,4.2,4.3,7.62,15.74,7.62h23.09c19.27,0,28.95,6.07,28.95,18.2v4.89c0,12.22-9.68,18.19-28.95,18.19H312.2c-3.13,0-3.81-1.76-3.81-5.28s.68-5.28,3.81-5.28h48.22c11.44,0,15.75-3.33,15.75-7.63v-4.89c0-4.21-4.31-7.63-15.75-7.63Z"/><path class="cls-7" d="M501.65,688.71a9.42,9.42,0,0,1,7.73-3.43c4.79,0,7.24,2.25,7.24,6.66v59.85c0,3.72-2.25,4.6-6.55,4.6s-6.56-.88-6.56-4.6V705.43l-39,47.24c-2.25,2.65-4.31,3.72-7.73,3.72-3.72,0-6.16-1.17-8.22-3.72l-39.12-47.24v46.36c0,3.72-2.25,4.6-6.55,4.6s-6.46-.88-6.46-4.6V691.94c0-4.41,2.45-6.66,7.14-6.66a9.61,9.61,0,0,1,7.73,3.43l45,54.28Z"/><path class="cls-8" d="M578.53,688.22l42.65,60.84a4.3,4.3,0,0,1,.68,2.24c0,2.94-3.81,5.19-7.14,5.19a5,5,0,0,1-4.3-2l-11.54-16.82H544.49l-10.85,16.82a4.87,4.87,0,0,1-4.21,2c-3.23,0-7-2.25-7-5.28a4.26,4.26,0,0,1,.68-2.15l40.11-60.84c1.46-2.15,3.81-3.43,7.72-3.43S577,686.07,578.53,688.22Zm-27.29,38.93h40.4L570.9,696.73Z"/><path class="cls-9" d="M632.23,685.09h55c17.7,0,28.75,6.26,28.75,15.84v12.33c0,9.58-11.05,15.84-28.75,15.84h-3.92c-11.54,0-16.23-.1-21.32-.39v.2c4.21,1.56,8.71,3,23.57,9l23.58,9.48a4.26,4.26,0,0,1,3.12,4.4c0,3.53-2.34,4.6-6.65,4.6-1.85,0-5.67-.19-7.72-1.37l-57.22-24.74v21.51c0,3.72-2.25,4.6-6.55,4.6s-6.46-.88-6.46-4.6v-62.2C627.63,686.56,629.1,685.09,632.23,685.09Zm8.41,10.56v23.08H686c13.3,0,17-2.73,17-6.26V701.91c0-3.52-3.72-6.26-17-6.26Z"/><path class="cls-9" d="M764.66,695.65v56.14c0,3.72-2.25,4.6-6.55,4.6s-6.46-.88-6.46-4.6V695.65H722.21c-3.13,0-3.81-1.76-3.81-5.28s.68-5.28,3.81-5.28h72c3.13,0,3.81,1.76,3.81,5.28s-.68,5.28-3.81,5.28Z"/></svg>