<svg width="24" height="24" viewBox="0 0 24 24" fill="none" xmlns="http://www.w3.org/2000/svg">
<circle cx="12" cy="12" r="12" fill="#F0F0F0"/>
<g clip-path="url(#clip0_3197_1603)">
<path d="M12.1667 5.33331C9.04 5.33331 6.5 7.87331 6.5 11C6.5 14.1266 9.04 16.6666 12.1667 16.6666H12.5V18.6666C15.74 17.1066 17.8333 14 17.8333 11C17.8333 7.87331 15.2933 5.33331 12.1667 5.33331ZM12.8333 15H11.5V13.6666H12.8333V15ZM13.1 11.8133C13.0933 11.82 13.0867 11.8333 13.08 11.8466C13.0467 11.9 13.0133 11.9533 12.9867 12.0066C12.9733 12.0266 12.9667 12.0533 12.96 12.08C12.94 12.1266 12.92 12.1733 12.9067 12.22C12.86 12.36 12.84 12.5066 12.84 12.6733H11.5C11.5 12.3333 11.5533 12.0466 11.6333 11.8066C11.6333 11.8 11.6333 11.7933 11.64 11.7866C11.6467 11.76 11.6667 11.7466 11.6733 11.72C11.7133 11.6133 11.76 11.52 11.82 11.4266C11.84 11.3933 11.8667 11.36 11.8867 11.3266C11.9067 11.3 11.92 11.2666 11.94 11.2466L11.9467 11.2533C12.5067 10.52 13.42 10.2933 13.4933 9.46665C13.5533 8.81331 13.0867 8.17998 12.4467 8.04665C11.7533 7.89998 11.1267 8.30665 10.9133 8.89998C10.82 9.13998 10.6 9.33331 10.3267 9.33331H10.1933C9.79333 9.33331 9.5 8.93998 9.61333 8.55331C9.98 7.33998 11.1933 6.49331 12.5667 6.69331C13.6933 6.85998 14.5933 7.78665 14.7867 8.91331C15.08 10.54 13.7 10.9333 13.1 11.8133Z" fill="url(#paint0_linear_3197_1603)"/>
</g>
<defs>
<linearGradient id="paint0_linear_3197_1603" x1="12.1667" y1="5.33331" x2="12.1667" y2="18.6666" gradientUnits="userSpaceOnUse">
<stop stop-color="#7D47EF"/>
<stop offset="1" stop-color="#A57AFE"/>
</linearGradient>
<clipPath id="clip0_3197_1603">
<rect width="16" height="16" fill="white" transform="translate(4.5 4)"/>
</clipPath>
</defs>
</svg>
