<svg width="24" height="24" viewBox="0 0 24 24" fill="none" xmlns="http://www.w3.org/2000/svg">
<circle cx="12" cy="12" r="12" fill="#F0F0F0"/>
<g clip-path="url(#clip0_3197_1593)">
<path d="M11.9946 6.66667C9.05063 6.66667 6.66663 9.056 6.66663 12C6.66663 14.944 9.05063 17.3333 11.9946 17.3333C14.944 17.3333 17.3333 14.944 17.3333 12C17.3333 9.056 14.944 6.66667 11.9946 6.66667ZM15.6906 9.86667H14.1173C13.9466 9.2 13.7013 8.56 13.3813 7.968C14.3626 8.304 15.1786 8.98667 15.6906 9.86667ZM12 7.75467C12.4426 8.39467 12.7893 9.104 13.0186 9.86667H10.9813C11.2106 9.104 11.5573 8.39467 12 7.75467ZM7.87196 13.0667C7.78663 12.7253 7.73329 12.368 7.73329 12C7.73329 11.632 7.78663 11.2747 7.87196 10.9333H9.67463C9.63196 11.2853 9.59996 11.6373 9.59996 12C9.59996 12.3627 9.63196 12.7147 9.67463 13.0667H7.87196ZM8.30929 14.1333H9.88263C10.0533 14.8 10.2986 15.44 10.6186 16.032C9.63729 15.696 8.82129 15.0187 8.30929 14.1333ZM9.88263 9.86667H8.30929C8.82129 8.98133 9.63729 8.304 10.6186 7.968C10.2986 8.56 10.0533 9.2 9.88263 9.86667ZM12 16.2453C11.5573 15.6053 11.2106 14.896 10.9813 14.1333H13.0186C12.7893 14.896 12.4426 15.6053 12 16.2453ZM13.248 13.0667H10.752C10.704 12.7147 10.6666 12.3627 10.6666 12C10.6666 11.6373 10.704 11.28 10.752 10.9333H13.248C13.296 11.28 13.3333 11.6373 13.3333 12C13.3333 12.3627 13.296 12.7147 13.248 13.0667ZM13.3813 16.032C13.7013 15.44 13.9466 14.8 14.1173 14.1333H15.6906C15.1786 15.0133 14.3626 15.696 13.3813 16.032ZM14.3253 13.0667C14.368 12.7147 14.4 12.3627 14.4 12C14.4 11.6373 14.368 11.2853 14.3253 10.9333H16.128C16.2133 11.2747 16.2666 11.632 16.2666 12C16.2666 12.368 16.2133 12.7253 16.128 13.0667H14.3253Z" fill="url(#paint0_linear_3197_1593)"/>
<path d="M19.5555 4H16.4444C16.2 4 16 4.2 16 4.44444V7.55556C16 7.8 16.2 8 16.4444 8H19.5555C19.8 8 20 7.8 20 7.55556V4.44444C20 4.2 19.8 4 19.5555 4ZM18.6666 5.77778C18.6666 6.02222 18.4666 6.22222 18.2222 6.22222H17.7777V6.66667H18.4444C18.5666 6.66667 18.6666 6.76667 18.6666 6.88889C18.6666 7.01111 18.5666 7.11111 18.4444 7.11111H17.5555C17.4333 7.11111 17.3333 7.01111 17.3333 6.88889V6.22222C17.3333 5.97778 17.5333 5.77778 17.7777 5.77778H18.2222V5.33333H17.5555C17.4333 5.33333 17.3333 5.23333 17.3333 5.11111C17.3333 4.98889 17.4333 4.88889 17.5555 4.88889H18.2222C18.4666 4.88889 18.6666 5.08889 18.6666 5.33333V5.77778Z" fill="url(#paint1_linear_3197_1593)"/>
</g>
<defs>
<linearGradient id="paint0_linear_3197_1593" x1="13.3333" y1="4" x2="13.3333" y2="17.3333" gradientUnits="userSpaceOnUse">
<stop stop-color="#7D47EF"/>
<stop offset="1" stop-color="#A57AFE"/>
</linearGradient>
<linearGradient id="paint1_linear_3197_1593" x1="13.3333" y1="4" x2="13.3333" y2="17.3333" gradientUnits="userSpaceOnUse">
<stop stop-color="#7D47EF"/>
<stop offset="1" stop-color="#A57AFE"/>
</linearGradient>
<clipPath id="clip0_3197_1593">
<rect width="16" height="16" fill="white" transform="translate(4 4)"/>
</clipPath>
</defs>
</svg>
