<svg width="24" height="24" viewBox="0 0 24 24" fill="none" xmlns="http://www.w3.org/2000/svg">
<circle cx="12" cy="12" r="12" fill="#F0F0F0"/>
<g clip-path="url(#clip0_3197_1619)">
<path d="M7.33333 7.33333H11.3333C11.7 7.33333 12 7.03333 12 6.66667C12 6.3 11.7 6 11.3333 6H7.33333C6.6 6 6 6.6 6 7.33333V16.6667C6 17.4 6.6 18 7.33333 18H11.3333C11.7 18 12 17.7 12 17.3333C12 16.9667 11.7 16.6667 11.3333 16.6667H7.33333V7.33333Z" fill="url(#paint0_linear_3197_1619)"/>
<path d="M17.7667 11.7667L15.9067 9.90667C15.6933 9.69333 15.3333 9.84 15.3333 10.14V11.3333H10.6667C10.3 11.3333 10 11.6333 10 12C10 12.3667 10.3 12.6667 10.6667 12.6667H15.3333V13.86C15.3333 14.16 15.6933 14.3067 15.9 14.0933L17.76 12.2333C17.8933 12.1067 17.8933 11.8933 17.7667 11.7667Z" fill="url(#paint1_linear_3197_1619)"/>
</g>
<defs>
<linearGradient id="paint0_linear_3197_1619" x1="11.9304" y1="6" x2="11.9304" y2="18" gradientUnits="userSpaceOnUse">
<stop stop-color="#7D47EF"/>
<stop offset="1" stop-color="#A57AFE"/>
</linearGradient>
<linearGradient id="paint1_linear_3197_1619" x1="11.9304" y1="6" x2="11.9304" y2="18" gradientUnits="userSpaceOnUse">
<stop stop-color="#7D47EF"/>
<stop offset="1" stop-color="#A57AFE"/>
</linearGradient>
<clipPath id="clip0_3197_1619">
<rect width="16" height="16" fill="white" transform="translate(4 4)"/>
</clipPath>
</defs>
</svg>
