<svg width="48" height="48" viewBox="0 0 48 48" fill="none" xmlns="http://www.w3.org/2000/svg">
<circle cx="24" cy="24" r="24" fill="#F4EBFF"/>
<g clip-path="url(#clip0_2797_2188)">
<path d="M24 14C18.48 14 14 18.48 14 24C14 29.52 18.48 34 24 34C29.52 34 34 29.52 34 24C34 18.48 29.52 14 24 14ZM21.29 28.29L17.7 24.7C17.31 24.31 17.31 23.68 17.7 23.29C18.09 22.9 18.72 22.9 19.11 23.29L22 26.17L28.88 19.29C29.27 18.9 29.9 18.9 30.29 19.29C30.68 19.68 30.68 20.31 30.29 20.7L22.7 28.29C22.32 28.68 21.68 28.68 21.29 28.29Z" fill="#333333"/>
</g>
<defs>
<clipPath id="clip0_2797_2188">
<rect width="24" height="24" fill="white" transform="translate(12 12)"/>
</clipPath>
</defs>
</svg>
