<svg width="48" height="48" viewBox="0 0 48 48" fill="none" xmlns="http://www.w3.org/2000/svg">
<circle cx="24" cy="24" r="24" fill="#F4EBFF"/>
<g clip-path="url(#clip0_2797_2177)">
<path d="M32 21C32 20.45 31.55 20 31 20H28V17C28 16.45 27.55 16 27 16C26.45 16 26 16.45 26 17V20H22V17C22 16.45 21.55 16 21 16C20.45 16 20 16.45 20 17V20H17C16.45 20 16 20.45 16 21C16 21.55 16.45 22 17 22H20V26H17C16.45 26 16 26.45 16 27C16 27.55 16.45 28 17 28H20V31C20 31.55 20.45 32 21 32C21.55 32 22 31.55 22 31V28H26V31C26 31.55 26.45 32 27 32C27.55 32 28 31.55 28 31V28H31C31.55 28 32 27.55 32 27C32 26.45 31.55 26 31 26H28V22H31C31.55 22 32 21.55 32 21ZM26 26H22V22H26V26Z" fill="#333333"/>
</g>
<defs>
<clipPath id="clip0_2797_2177">
<rect width="24" height="24" fill="white" transform="translate(12 12)"/>
</clipPath>
</defs>
</svg>
