<svg width="12" height="14" viewBox="0 0 12 14" fill="none" xmlns="http://www.w3.org/2000/svg">
<path d="M7.33333 5.0013H4.66667C4.3 5.0013 4 4.7013 4 4.33464C4 3.96797 4.3 3.66797 4.66667 3.66797H7.33333C7.7 3.66797 8 3.96797 8 4.33464C8 4.7013 7.7 5.0013 7.33333 5.0013Z" fill="#344054"/>
<path d="M7.33333 7.0013H4.66667C4.3 7.0013 4 6.7013 4 6.33464C4 5.96797 4.3 5.66797 4.66667 5.66797H7.33333C7.7 5.66797 8 5.96797 8 6.33464C8 6.7013 7.7 7.0013 7.33333 7.0013Z" fill="#344054"/>
<path d="M11 1.33398L10 0.333984L9 1.33398L8 0.333984L7 1.33398L6 0.333984L5 1.33398L4 0.333984L3 1.33398L2 0.333984V9.66732H0.666667C0.3 9.66732 0 9.96732 0 10.334V11.6673C0 12.774 0.893333 13.6673 2 13.6673H10C11.1067 13.6673 12 12.774 12 11.6673V0.333984L11 1.33398ZM8 12.334H2C1.63333 12.334 1.33333 12.034 1.33333 11.6673V11.0007H3.33333H6H8V12.334ZM10.6667 11.6673C10.6667 12.034 10.3667 12.334 10 12.334C9.63333 12.334 9.33333 12.034 9.33333 11.6673V10.334C9.33333 9.96732 9.03333 9.66732 8.66667 9.66732H7.33333H6H3.33333V2.33398H10.6667V11.6673Z" fill="#344054"/>
<path d="M9.33329 5.0013C9.70148 5.0013 9.99996 4.70283 9.99996 4.33464C9.99996 3.96645 9.70148 3.66797 9.33329 3.66797C8.9651 3.66797 8.66663 3.96645 8.66663 4.33464C8.66663 4.70283 8.9651 5.0013 9.33329 5.0013Z" fill="#344054"/>
<path d="M9.33329 7.0013C9.70148 7.0013 9.99996 6.70283 9.99996 6.33464C9.99996 5.96645 9.70148 5.66797 9.33329 5.66797C8.9651 5.66797 8.66663 5.96645 8.66663 6.33464C8.66663 6.70283 8.9651 7.0013 9.33329 7.0013Z" fill="#344054"/>
</svg>
