<svg width="24" height="24" viewBox="0 0 24 24" fill="none" xmlns="http://www.w3.org/2000/svg">
<circle cx="12" cy="12" r="12" fill="#F0F0F0"/>
<g clip-path="url(#clip0_3197_1611)">
<path d="M6.79333 6.97999C6.31333 7.19332 6 7.67332 6 8.19999V11.3333C6 15.0333 8.56 18.4933 12 19.3333C15.44 18.4933 18 15.0333 18 11.3333V8.19999C18 7.67332 17.6867 7.19332 17.2067 6.97999L12.54 4.90666C12.1933 4.75332 11.8 4.75332 11.46 4.90666L6.79333 6.97999ZM12 8.66666C12.3667 8.66666 12.6667 8.96666 12.6667 9.33332C12.6667 9.69999 12.3667 9.99999 12 9.99999C11.6333 9.99999 11.3333 9.69999 11.3333 9.33332C11.3333 8.96666 11.6333 8.66666 12 8.66666ZM12 11.3333C12.3667 11.3333 12.6667 11.6333 12.6667 12V14.6667C12.6667 15.0333 12.3667 15.3333 12 15.3333C11.6333 15.3333 11.3333 15.0333 11.3333 14.6667V12C11.3333 11.6333 11.6333 11.3333 12 11.3333Z" fill="url(#paint0_linear_3197_1611)"/>
</g>
<defs>
<linearGradient id="paint0_linear_3197_1611" x1="12" y1="4.79166" x2="12" y2="19.3333" gradientUnits="userSpaceOnUse">
<stop stop-color="#7D47EF"/>
<stop offset="1" stop-color="#A57AFE"/>
</linearGradient>
<clipPath id="clip0_3197_1611">
<rect width="16" height="16" fill="white" transform="translate(4 4)"/>
</clipPath>
</defs>
</svg>
