<svg width="40" height="40" viewBox="0 0 40 40" fill="none" xmlns="http://www.w3.org/2000/svg">
<g filter="url(#filter0_d_3364_1577)">
<circle cx="20" cy="19" r="18" fill="white"/>
<circle cx="20" cy="19" r="17.5" stroke="#D0D5DD"/>
</g>
<g clip-path="url(#clip0_3364_1577)">
<path d="M20 15.25V13.75C20 12.925 19.325 12.25 18.5 12.25H14C13.175 12.25 12.5 12.925 12.5 13.75V24.25C12.5 25.075 13.175 25.75 14 25.75H26C26.825 25.75 27.5 25.075 27.5 24.25V16.75C27.5 15.925 26.825 15.25 26 15.25H20ZM15.5 24.25H14V22.75H15.5V24.25ZM15.5 21.25H14V19.75H15.5V21.25ZM15.5 18.25H14V16.75H15.5V18.25ZM15.5 15.25H14V13.75H15.5V15.25ZM18.5 24.25H17V22.75H18.5V24.25ZM18.5 21.25H17V19.75H18.5V21.25ZM18.5 18.25H17V16.75H18.5V18.25ZM18.5 15.25H17V13.75H18.5V15.25ZM25.25 24.25H20V22.75H21.5V21.25H20V19.75H21.5V18.25H20V16.75H25.25C25.6625 16.75 26 17.0875 26 17.5V23.5C26 23.9125 25.6625 24.25 25.25 24.25ZM24.5 18.25H23V19.75H24.5V18.25ZM24.5 21.25H23V22.75H24.5V21.25Z" fill="url(#paint0_linear_3364_1577)"/>
</g>
<defs>
<filter id="filter0_d_3364_1577" x="0" y="0" width="40" height="40" filterUnits="userSpaceOnUse" color-interpolation-filters="sRGB">
<feFlood flood-opacity="0" result="BackgroundImageFix"/>
<feColorMatrix in="SourceAlpha" type="matrix" values="0 0 0 0 0 0 0 0 0 0 0 0 0 0 0 0 0 0 127 0" result="hardAlpha"/>
<feOffset dy="1"/>
<feGaussianBlur stdDeviation="1"/>
<feColorMatrix type="matrix" values="0 0 0 0 0.0627451 0 0 0 0 0.0941176 0 0 0 0 0.156863 0 0 0 0.05 0"/>
<feBlend mode="normal" in2="BackgroundImageFix" result="effect1_dropShadow_3364_1577"/>
<feBlend mode="normal" in="SourceGraphic" in2="effect1_dropShadow_3364_1577" result="shape"/>
</filter>
<linearGradient id="paint0_linear_3364_1577" x1="20" y1="12.25" x2="20" y2="25.75" gradientUnits="userSpaceOnUse">
<stop stop-color="#7D47EF"/>
<stop offset="1" stop-color="#A57AFE"/>
</linearGradient>
<clipPath id="clip0_3364_1577">
<rect width="18" height="18" fill="white" transform="translate(11 10)"/>
</clipPath>
</defs>
</svg>
