<svg width="40" height="40" viewBox="0 0 40 40" fill="none" xmlns="http://www.w3.org/2000/svg">
<g filter="url(#filter0_d_3364_1485)">
<rect x="2" y="1" width="36" height="36" rx="18" fill="white"/>
<path d="M20 8V30M25 12H17.5C16.5717 12 15.6815 12.3687 15.0251 13.0251C14.3687 13.6815 14 14.5717 14 15.5C14 16.4283 14.3687 17.3185 15.0251 17.9749C15.6815 18.6313 16.5717 19 17.5 19H22.5C23.4283 19 24.3185 19.3687 24.9749 20.0251C25.6313 20.6815 26 21.5717 26 22.5C26 23.4283 25.6313 24.3185 24.9749 24.9749C24.3185 25.6313 23.4283 26 22.5 26H14" stroke="url(#paint0_linear_3364_1485)" stroke-width="2" stroke-linecap="round" stroke-linejoin="round"/>
<rect x="2.5" y="1.5" width="35" height="35" rx="17.5" stroke="#D0D5DD"/>
</g>
<defs>
<filter id="filter0_d_3364_1485" x="0" y="0" width="40" height="40" filterUnits="userSpaceOnUse" color-interpolation-filters="sRGB">
<feFlood flood-opacity="0" result="BackgroundImageFix"/>
<feColorMatrix in="SourceAlpha" type="matrix" values="0 0 0 0 0 0 0 0 0 0 0 0 0 0 0 0 0 0 127 0" result="hardAlpha"/>
<feOffset dy="1"/>
<feGaussianBlur stdDeviation="1"/>
<feColorMatrix type="matrix" values="0 0 0 0 0.0627451 0 0 0 0 0.0941176 0 0 0 0 0.156863 0 0 0 0.05 0"/>
<feBlend mode="normal" in2="BackgroundImageFix" result="effect1_dropShadow_3364_1485"/>
<feBlend mode="normal" in="SourceGraphic" in2="effect1_dropShadow_3364_1485" result="shape"/>
</filter>
<linearGradient id="paint0_linear_3364_1485" x1="20" y1="8" x2="20" y2="30" gradientUnits="userSpaceOnUse">
<stop stop-color="#7D47EF"/>
<stop offset="1" stop-color="#A57AFE"/>
</linearGradient>
</defs>
</svg>
