<svg width="24" height="24" viewBox="0 0 24 24" fill="none" xmlns="http://www.w3.org/2000/svg">
<path d="M7.54578 18.7986L7.49195 18.7668L7.43146 18.7826L4.5126 19.5464L5.29019 16.713L5.30769 16.6493L5.27242 16.5933L5.07317 16.2773C4.24939 14.969 3.81343 13.4547 3.81567 11.9096V11.9094C3.81728 7.38439 7.50742 3.70216 12.0455 3.70216L12.0458 3.70216C13.1264 3.69962 14.1968 3.91105 15.195 4.32418C16.1932 4.73731 17.0994 5.34395 17.8611 6.10896L17.8614 6.10925C19.4147 7.66083 20.2693 9.72267 20.2685 11.916C20.2666 16.4413 16.5766 20.1239 12.0422 20.1239H12.0391C12.0391 20.1239 12.039 20.1239 12.039 20.1239C10.5623 20.1232 9.1145 19.7275 7.85201 18.9797L7.85191 18.9796L7.54578 18.7986ZM1.73474 22.1067L1.66597 22.3574L1.91737 22.2916L7.20266 20.9083C8.68362 21.703 10.3462 22.1216 12.0377 22.1223H12.0378H12.0422C17.6792 22.1223 22.2679 17.5439 22.2704 11.9168C22.2714 9.18998 21.2085 6.62536 19.2774 4.69653C17.3462 2.7677 14.7778 1.7049 12.0424 1.70352H12.0423C6.4045 1.70352 1.81641 6.28104 1.81404 11.9086L1.81404 11.9086C1.81349 13.6861 2.27334 15.4219 3.14808 16.9563L1.73474 22.1067Z" stroke="#7D47EF" stroke-width="0.3"/>
<path d="M1.776 22.0429L3.20587 16.8323C2.32251 15.3037 1.85852 13.5697 1.86065 11.8051C1.86298 6.26066 6.38366 1.75 11.9389 1.75C14.6347 1.75137 17.165 2.79844 19.068 4.69914C20.971 6.59984 22.018 9.12628 22.017 11.8132C22.0146 17.3573 17.4932 21.8688 11.9388 21.8688H11.9344C10.2478 21.8681 8.59058 21.4458 7.11853 20.6446L1.776 22.0429Z" fill="white"/>
<path d="M11.9419 3.44924C7.32139 3.44924 3.56379 7.19829 3.56214 11.8064C3.55987 13.38 4.00383 14.922 4.84271 16.2543L5.04201 16.5706L4.19565 19.6545L7.36604 18.8248L7.67218 19.0058C8.95795 19.7674 10.4322 20.1702 11.9356 20.171H11.9388C16.5557 20.171 20.3134 16.4215 20.3151 11.8131C20.3186 10.7147 20.1038 9.62655 19.683 8.61159C19.2623 7.59663 18.644 6.67505 17.864 5.90021C17.0883 5.12113 16.1655 4.50335 15.1489 4.08264C14.1324 3.66193 13.0424 3.44664 11.9419 3.44924Z" fill="url(#paint0_linear_3364_2385)"/>
<path fill-rule="evenodd" clip-rule="evenodd" d="M9.41998 7.60121C9.23123 7.18273 9.03262 7.17426 8.85332 7.16701L8.37062 7.16113C8.20269 7.16113 7.92984 7.22402 7.69918 7.47557C7.46851 7.72712 6.81775 8.33508 6.81775 9.57163C6.81775 10.8082 7.72013 12.003 7.84587 12.1709C7.97162 12.3388 9.58791 14.9573 12.1475 15.9647C14.2746 16.8019 14.7074 16.6354 15.1693 16.5936C15.6312 16.5517 16.6592 15.9856 16.8689 15.3987C17.0786 14.8118 17.0787 14.309 17.0159 14.2038C16.953 14.0987 16.7851 14.0362 16.533 13.9104C16.281 13.7847 15.0432 13.1767 14.8124 13.0928C14.5816 13.0088 14.4138 12.9671 14.2457 13.2187C14.0776 13.4702 13.5956 14.0361 13.4486 14.2038C13.3017 14.3716 13.155 14.3926 12.9029 14.267C12.6509 14.1414 11.84 13.8759 10.8779 13.0196C10.1294 12.3534 9.62407 11.5307 9.47696 11.2793C9.32985 11.0279 9.46134 10.8917 9.58763 10.7665C9.70064 10.6538 9.83939 10.473 9.96554 10.3263C10.0917 10.1796 10.1332 10.0747 10.217 9.90726C10.3009 9.73979 10.2591 9.59269 10.1961 9.46705C10.1331 9.34141 9.64379 8.09843 9.41998 7.60134" fill="white"/>
<defs>
<linearGradient id="paint0_linear_3364_2385" x1="11.7681" y1="4.45271" x2="11.8527" y2="18.7425" gradientUnits="userSpaceOnUse">
<stop stop-color="#57D163"/>
<stop offset="1" stop-color="#23B33A"/>
</linearGradient>
</defs>
</svg>
