<svg width="108" height="108" viewBox="0 0 108 108" fill="none" xmlns="http://www.w3.org/2000/svg">
<path d="M76.6132 31.387C70.3732 25.147 62.2132 22.0003 53.9998 22.0003V54.0003L31.3865 76.6137C43.8665 89.0937 64.1332 89.0937 76.6665 76.6137C89.1465 64.1337 89.1465 43.867 76.6132 31.387ZM53.9998 0.666992C24.5598 0.666992 0.666504 24.5603 0.666504 54.0003C0.666504 83.4403 24.5598 107.334 53.9998 107.334C83.4398 107.334 107.333 83.4403 107.333 54.0003C107.333 24.5603 83.4398 0.666992 53.9998 0.666992ZM53.9998 96.667C30.4265 96.667 11.3332 77.5737 11.3332 54.0003C11.3332 30.427 30.4265 11.3337 53.9998 11.3337C77.5732 11.3337 96.6665 30.427 96.6665 54.0003C96.6665 77.5737 77.5732 96.667 53.9998 96.667Z" fill="#333333"/>
</svg>
