<svg width="50" height="50" viewBox="0 0 50 50" fill="none" xmlns="http://www.w3.org/2000/svg">
<g filter="url(#filter0_d_12_19)">
<rect x="2" y="1" width="46" height="46" rx="23" fill="white"/>
<g clip-path="url(#clip0_12_19)">
<path d="M33 19H28V16C28 14.9 27.1 14 26 14H24C22.9 14 22 14.9 22 16V19H17C15.9 19 15 19.9 15 21V32C15 33.1 15.9 34 17 34H33C34.1 34 35 33.1 35 32V21C35 19.9 34.1 19 33 19ZM22 24C22.83 24 23.5 24.67 23.5 25.5C23.5 26.33 22.83 27 22 27C21.17 27 20.5 26.33 20.5 25.5C20.5 24.67 21.17 24 22 24ZM25 30H19V29.57C19 28.97 19.36 28.42 19.92 28.18C20.56 27.9 21.26 27.75 22 27.75C22.74 27.75 23.44 27.9 24.08 28.18C24.63 28.42 25 28.96 25 29.57V30ZM26 21H24V16H26V21ZM30.25 28.5H27.75C27.34 28.5 27 28.16 27 27.75C27 27.34 27.34 27 27.75 27H30.25C30.66 27 31 27.34 31 27.75C31 28.16 30.66 28.5 30.25 28.5ZM30.25 25.5H27.75C27.34 25.5 27 25.16 27 24.75C27 24.34 27.34 24 27.75 24H30.25C30.66 24 31 24.34 31 24.75C31 25.16 30.66 25.5 30.25 25.5Z" fill="#7D47EF"/>
</g>
<rect x="2.5" y="1.5" width="45" height="45" rx="22.5" stroke="#D0D5DD"/>
</g>
<defs>
<filter id="filter0_d_12_19" x="0" y="0" width="50" height="50" filterUnits="userSpaceOnUse" color-interpolation-filters="sRGB">
<feFlood flood-opacity="0" result="BackgroundImageFix"/>
<feColorMatrix in="SourceAlpha" type="matrix" values="0 0 0 0 0 0 0 0 0 0 0 0 0 0 0 0 0 0 127 0" result="hardAlpha"/>
<feOffset dy="1"/>
<feGaussianBlur stdDeviation="1"/>
<feColorMatrix type="matrix" values="0 0 0 0 0.0627451 0 0 0 0 0.0941176 0 0 0 0 0.156863 0 0 0 0.05 0"/>
<feBlend mode="normal" in2="BackgroundImageFix" result="effect1_dropShadow_12_19"/>
<feBlend mode="normal" in="SourceGraphic" in2="effect1_dropShadow_12_19" result="shape"/>
</filter>
<clipPath id="clip0_12_19">
<rect width="24" height="24" fill="white" transform="translate(13 12)"/>
</clipPath>
</defs>
</svg>
