<svg width="12" height="14" viewBox="0 0 12 14" fill="none" xmlns="http://www.w3.org/2000/svg">
<path d="M7.33333 4.99935H4.66667C4.3 4.99935 4 4.69935 4 4.33268C4 3.96602 4.3 3.66602 4.66667 3.66602H7.33333C7.7 3.66602 8 3.96602 8 4.33268C8 4.69935 7.7 4.99935 7.33333 4.99935Z" fill="#344054"/>
<path d="M7.33333 6.99935H4.66667C4.3 6.99935 4 6.69935 4 6.33268C4 5.96602 4.3 5.66602 4.66667 5.66602H7.33333C7.7 5.66602 8 5.96602 8 6.33268C8 6.69935 7.7 6.99935 7.33333 6.99935Z" fill="#344054"/>
<path d="M11 1.33301L10 0.333008L9 1.33301L8 0.333008L7 1.33301L6 0.333008L5 1.33301L4 0.333008L3 1.33301L2 0.333008V9.66634H0.666667C0.3 9.66634 0 9.96634 0 10.333V11.6663C0 12.773 0.893333 13.6663 2 13.6663H10C11.1067 13.6663 12 12.773 12 11.6663V0.333008L11 1.33301ZM8 12.333H2C1.63333 12.333 1.33333 12.033 1.33333 11.6663V10.9997H3.33333H6H8V12.333ZM10.6667 11.6663C10.6667 12.033 10.3667 12.333 10 12.333C9.63333 12.333 9.33333 12.033 9.33333 11.6663V10.333C9.33333 9.96634 9.03333 9.66634 8.66667 9.66634H7.33333H6H3.33333V2.33301H10.6667V11.6663Z" fill="#344054"/>
<path d="M9.33317 4.99935C9.70136 4.99935 9.99984 4.70087 9.99984 4.33268C9.99984 3.96449 9.70136 3.66602 9.33317 3.66602C8.96498 3.66602 8.6665 3.96449 8.6665 4.33268C8.6665 4.70087 8.96498 4.99935 9.33317 4.99935Z" fill="#344054"/>
<path d="M9.33317 6.99935C9.70136 6.99935 9.99984 6.70087 9.99984 6.33268C9.99984 5.96449 9.70136 5.66602 9.33317 5.66602C8.96498 5.66602 8.6665 5.96449 8.6665 6.33268C8.6665 6.70087 8.96498 6.99935 9.33317 6.99935Z" fill="#344054"/>
</svg>
