<svg width="52" height="52" viewBox="0 0 52 52" fill="none" xmlns="http://www.w3.org/2000/svg">
<g filter="url(#filter0_d_298_8)">
<rect x="2" y="1" width="48" height="48" rx="24" fill="white"/>
<path d="M26 14V36" stroke="#344054" stroke-width="2" stroke-linecap="round" stroke-linejoin="round"/>
<path d="M31 18H23.5C22.5717 18 21.6815 18.3687 21.0251 19.0251C20.3687 19.6815 20 20.5717 20 21.5C20 22.4283 20.3687 23.3185 21.0251 23.9749C21.6815 24.6313 22.5717 25 23.5 25H28.5C29.4283 25 30.3185 25.3687 30.9749 26.0251C31.6313 26.6815 32 27.5717 32 28.5C32 29.4283 31.6313 30.3185 30.9749 30.9749C30.3185 31.6313 29.4283 32 28.5 32H20" stroke="#344054" stroke-width="2" stroke-linecap="round" stroke-linejoin="round"/>
<rect x="2.5" y="1.5" width="47" height="47" rx="23.5" stroke="#D0D5DD"/>
</g>
<defs>
<filter id="filter0_d_298_8" x="0" y="0" width="52" height="52" filterUnits="userSpaceOnUse" color-interpolation-filters="sRGB">
<feFlood flood-opacity="0" result="BackgroundImageFix"/>
<feColorMatrix in="SourceAlpha" type="matrix" values="0 0 0 0 0 0 0 0 0 0 0 0 0 0 0 0 0 0 127 0" result="hardAlpha"/>
<feOffset dy="1"/>
<feGaussianBlur stdDeviation="1"/>
<feColorMatrix type="matrix" values="0 0 0 0 0.0627451 0 0 0 0 0.0941176 0 0 0 0 0.156863 0 0 0 0.05 0"/>
<feBlend mode="normal" in2="BackgroundImageFix" result="effect1_dropShadow_298_8"/>
<feBlend mode="normal" in="SourceGraphic" in2="effect1_dropShadow_298_8" result="shape"/>
</filter>
</defs>
</svg>
