<svg width="46" height="46" viewBox="0 0 46 46" fill="none" xmlns="http://www.w3.org/2000/svg">
<rect width="46" height="46" rx="23" fill="#F4EBFF"/>
<path d="M19.9544 10.0476H26.0496C26.8877 10.0476 27.5734 9.36186 27.5734 8.52378C27.5734 7.6857 26.8877 7 26.0496 7H19.9544C19.1164 7 18.4307 7.6857 18.4307 8.52378C18.4307 9.36186 19.1164 10.0476 19.9544 10.0476Z" fill="#7D47EF"/>
<path d="M33.7145 16.7376L34.8574 15.5948C35.4364 15.0158 35.4517 14.0558 34.8574 13.4615L34.8421 13.4463C34.2479 12.852 33.3031 12.8672 32.7088 13.4463L31.566 14.5891C29.2041 12.6996 26.2328 11.572 23.0024 11.572C15.6882 11.572 9.47116 17.6062 9.28831 24.9204C9.09022 32.6612 15.292 39.0001 23.0024 39.0001C30.5908 39.0001 36.7164 32.8593 36.7164 25.2861C36.7164 22.0556 35.5888 19.0843 33.7145 16.7376Z" fill="#7D47EF"/>
<path d="M33.6687 25.2861C33.6687 31.177 28.8931 35.9525 23.0022 35.9525C17.1113 35.9525 12.3357 31.177 12.3357 25.2861C12.3357 19.3951 17.1113 14.6196 23.0022 14.6196C28.8931 14.6196 33.6687 19.3951 33.6687 25.2861Z" fill="#71D67A"/>
</svg>
