<svg width="50" height="50" viewBox="0 0 50 50" fill="none" xmlns="http://www.w3.org/2000/svg">
<g filter="url(#filter0_d_12_6)">
<rect x="2" y="1" width="46" height="46" rx="23" fill="white"/>
<g clip-path="url(#clip0_12_6)">
<path d="M27 21H23C22.45 21 22 20.55 22 20C22 19.45 22.45 19 23 19H27C27.55 19 28 19.45 28 20C28 20.55 27.55 21 27 21Z" fill="#7D47EF"/>
<path d="M27 24H23C22.45 24 22 23.55 22 23C22 22.45 22.45 22 23 22H27C27.55 22 28 22.45 28 23C28 23.55 27.55 24 27 24Z" fill="#7D47EF"/>
<path d="M32.5 15.5L31 14L29.5 15.5L28 14L26.5 15.5L25 14L23.5 15.5L22 14L20.5 15.5L19 14V28H17C16.45 28 16 28.45 16 29V31C16 32.66 17.34 34 19 34H31C32.66 34 34 32.66 34 31V14L32.5 15.5ZM28 32H19C18.45 32 18 31.55 18 31V30H21H25H28V32ZM32 31C32 31.55 31.55 32 31 32C30.45 32 30 31.55 30 31V29C30 28.45 29.55 28 29 28H27H25H21V17H32V31Z" fill="#7D47EF"/>
<path d="M30 21C30.5523 21 31 20.5523 31 20C31 19.4477 30.5523 19 30 19C29.4477 19 29 19.4477 29 20C29 20.5523 29.4477 21 30 21Z" fill="#7D47EF"/>
<path d="M30 24C30.5523 24 31 23.5523 31 23C31 22.4477 30.5523 22 30 22C29.4477 22 29 22.4477 29 23C29 23.5523 29.4477 24 30 24Z" fill="#7D47EF"/>
</g>
<rect x="2.5" y="1.5" width="45" height="45" rx="22.5" stroke="#D0D5DD"/>
</g>
<defs>
<filter id="filter0_d_12_6" x="0" y="0" width="50" height="50" filterUnits="userSpaceOnUse" color-interpolation-filters="sRGB">
<feFlood flood-opacity="0" result="BackgroundImageFix"/>
<feColorMatrix in="SourceAlpha" type="matrix" values="0 0 0 0 0 0 0 0 0 0 0 0 0 0 0 0 0 0 127 0" result="hardAlpha"/>
<feOffset dy="1"/>
<feGaussianBlur stdDeviation="1"/>
<feColorMatrix type="matrix" values="0 0 0 0 0.0627451 0 0 0 0 0.0941176 0 0 0 0 0.156863 0 0 0 0.05 0"/>
<feBlend mode="normal" in2="BackgroundImageFix" result="effect1_dropShadow_12_6"/>
<feBlend mode="normal" in="SourceGraphic" in2="effect1_dropShadow_12_6" result="shape"/>
</filter>
<clipPath id="clip0_12_6">
<rect width="24" height="24" fill="white" transform="translate(13 12)"/>
</clipPath>
</defs>
</svg>
