<svg width="521" height="530" viewBox="0 0 521 530" fill="none" xmlns="http://www.w3.org/2000/svg">
<path d="M157.45 130.161V199.79H107.619C78.9503 199.79 51.4554 211.152 31.1801 231.378C14.3876 248.131 3.68625 269.827 0.5 293.041L0.5 237.021C0.5 237.021 0.5 237.02 0.5 237.02C0.509332 208.677 11.7989 181.497 31.8864 161.457C51.9739 141.418 79.2148 130.161 107.619 130.161H157.45Z" stroke="#FF0000"/>
<path d="M66.6228 338.671C79.62 333.306 93.5504 330.545 107.619 330.545H157.45V407.709L0.500001 528.237V437.292C0.498467 423.274 3.26797 409.394 8.65035 396.443C14.0327 383.492 21.9226 371.724 31.8696 361.812C41.8165 351.899 53.6257 344.036 66.6228 338.671Z" stroke="#FF0000"/>
<path d="M336.537 328.648L336.53 328.648L314.398 328.931C340.756 325.664 366.022 316.114 388.01 300.99C414.292 282.912 434.759 257.648 446.948 228.249C460.746 237.476 473.067 248.727 483.493 261.621C497.934 293.497 486.529 327.819 461.872 354.236C437.202 380.669 399.341 399.09 361.152 399.09H343.051C347.998 397.642 353.163 394.659 357.544 390.407C363.927 384.211 368.685 375.283 368.685 364.375C368.685 353.467 363.927 344.536 357.544 338.338C351.173 332.15 343.142 328.648 336.537 328.648Z" stroke="#FF0000"/>
<path d="M7.74007 395.974C4.1832 404.54 1.75496 413.508 0.500001 422.654V307.718C0.500001 279.338 11.8036 252.121 31.9247 232.054C52.0458 211.986 79.3361 200.712 107.792 200.712H275.466C282.086 200.712 290.136 197.198 296.522 190.989C302.919 184.769 307.687 175.806 307.687 164.861C307.687 153.916 302.919 144.954 296.522 138.734C290.136 132.525 282.086 129.01 275.466 129.01H107.792C79.0718 129.01 51.5274 140.389 31.2185 160.644C14.403 177.415 3.68852 199.133 0.500001 222.369V107.505C0.498465 93.453 3.27254 79.5379 8.66383 66.5548C14.0551 53.5717 21.958 41.775 31.9212 31.8382C41.8845 21.9015 53.7129 14.0194 66.731 8.64235C79.749 3.26526 93.7017 0.498469 107.792 0.500001H294.37C338.087 0.500001 380.014 17.8206 410.927 48.6511C441.84 79.4815 459.206 121.296 459.206 164.896C459.206 208.497 441.84 250.311 410.927 281.142C380.014 311.972 338.087 329.293 294.37 329.293H107.792C93.5703 329.293 79.4875 332.087 66.3483 337.515C53.209 342.944 41.2704 350.9 31.2143 360.931C21.1583 370.961 13.1817 382.869 7.74007 395.974Z" stroke="#FF0000"/>
<path d="M463.132 354.528C487.135 328.712 498.831 295.273 486.403 263.745C504.547 287.356 515.963 315.465 519.402 345.087C522.984 375.945 517.762 407.186 504.34 435.204C490.918 463.221 469.843 486.872 443.549 503.425C417.254 519.978 386.813 528.758 355.739 528.751H0.5V507.15C0.5 478.721 11.7963 451.457 31.9039 431.354C52.0115 411.252 79.2832 399.959 107.72 399.959H361.516C400.071 399.959 438.251 381.29 463.132 354.528Z" stroke="#FF0000"/>
</svg>
