<svg width="360" height="530" viewBox="0 0 360 530" fill="none" xmlns="http://www.w3.org/2000/svg">
<g opacity="0.1">
<path d="M200.152 399.09H182.052C186.998 397.642 192.163 394.659 196.544 390.407C202.927 384.211 207.685 375.283 207.685 364.375C207.685 353.467 202.927 344.536 196.544 338.338C190.173 332.15 182.142 328.648 175.537 328.648L175.53 328.648L153.398 328.931C179.756 325.664 205.022 316.114 227.01 300.99C253.292 282.912 273.759 257.648 285.948 228.249C299.746 237.476 312.067 248.727 322.493 261.621C336.934 293.497 325.529 327.819 300.872 354.236C276.202 380.669 238.341 399.09 200.152 399.09Z" stroke="#595959"/>
<path d="M-153.26 395.974C-156.817 404.54 -159.245 413.508 -160.5 422.654V307.718C-160.5 279.338 -149.196 252.121 -129.075 232.054C-108.954 211.986 -81.6639 200.712 -53.2078 200.712H114.466C121.086 200.712 129.136 197.198 135.522 190.989C141.919 184.769 146.687 175.806 146.687 164.861C146.687 153.916 141.919 144.954 135.522 138.734C129.136 132.525 121.086 129.01 114.466 129.01H-53.2078C-81.9282 129.01 -109.473 140.389 -129.781 160.644C-146.597 177.415 -157.311 199.133 -160.5 222.369V107.505C-160.502 93.453 -157.727 79.5379 -152.336 66.5548C-146.945 53.5717 -139.042 41.775 -129.079 31.8382C-119.116 21.9015 -107.287 14.0194 -94.269 8.64235C-81.251 3.26526 -67.2983 0.498469 -53.2079 0.500001H133.37C177.087 0.500001 219.014 17.8206 249.927 48.6511C280.84 79.4815 298.206 121.296 298.206 164.896C298.206 208.497 280.84 250.311 249.927 281.142C219.014 311.972 177.087 329.293 133.37 329.293H-53.2078C-67.4297 329.293 -81.5124 332.087 -94.6517 337.515C-107.791 342.944 -119.73 350.9 -129.786 360.931C-139.842 370.961 -147.818 382.869 -153.26 395.974Z" stroke="#595959"/>
<path d="M194.739 528.751H-160.5V507.15C-160.5 478.721 -149.204 451.457 -129.096 431.354C-108.989 411.252 -81.7168 399.959 -53.2803 399.959H200.516C239.071 399.959 277.251 381.29 302.132 354.528C326.134 328.712 337.831 295.274 325.403 263.745C343.547 287.356 354.963 315.465 358.402 345.087C361.984 375.945 356.762 407.186 343.34 435.204C329.918 463.221 308.843 486.872 282.549 503.425C256.254 519.978 225.813 528.758 194.739 528.751Z" stroke="#595959"/>
</g>
</svg>
