<svg width="52" height="52" viewBox="0 0 52 52" fill="none" xmlns="http://www.w3.org/2000/svg">
<g filter="url(#filter0_d_38_14)">
<circle cx="26" cy="25" r="24" fill="white"/>
<circle cx="26" cy="25" r="23.5" stroke="#D0D5DD"/>
</g>
<g clip-path="url(#clip0_38_14)">
<path d="M19 18H25C25.55 18 26 17.55 26 17C26 16.45 25.55 16 25 16H19C17.9 16 17 16.9 17 18V32C17 33.1 17.9 34 19 34H25C25.55 34 26 33.55 26 33C26 32.45 25.55 32 25 32H19V18Z" fill="url(#paint0_linear_38_14)"/>
<path d="M34.65 24.65L31.86 21.86C31.54 21.54 31 21.76 31 22.21V24H24C23.45 24 23 24.45 23 25C23 25.55 23.45 26 24 26H31V27.79C31 28.24 31.54 28.46 31.85 28.14L34.64 25.35C34.84 25.16 34.84 24.84 34.65 24.65Z" fill="url(#paint1_linear_38_14)"/>
</g>
<defs>
<filter id="filter0_d_38_14" x="0" y="0" width="52" height="52" filterUnits="userSpaceOnUse" color-interpolation-filters="sRGB">
<feFlood flood-opacity="0" result="BackgroundImageFix"/>
<feColorMatrix in="SourceAlpha" type="matrix" values="0 0 0 0 0 0 0 0 0 0 0 0 0 0 0 0 0 0 127 0" result="hardAlpha"/>
<feOffset dy="1"/>
<feGaussianBlur stdDeviation="1"/>
<feColorMatrix type="matrix" values="0 0 0 0 0.0627451 0 0 0 0 0.0941176 0 0 0 0 0.156863 0 0 0 0.05 0"/>
<feBlend mode="normal" in2="BackgroundImageFix" result="effect1_dropShadow_38_14"/>
<feBlend mode="normal" in="SourceGraphic" in2="effect1_dropShadow_38_14" result="shape"/>
</filter>
<linearGradient id="paint0_linear_38_14" x1="25.8956" y1="16" x2="25.8956" y2="34" gradientUnits="userSpaceOnUse">
<stop stop-color="#7D47EF"/>
<stop offset="1" stop-color="#A57AFE"/>
</linearGradient>
<linearGradient id="paint1_linear_38_14" x1="25.8956" y1="16" x2="25.8956" y2="34" gradientUnits="userSpaceOnUse">
<stop stop-color="#7D47EF"/>
<stop offset="1" stop-color="#A57AFE"/>
</linearGradient>
<clipPath id="clip0_38_14">
<rect width="24" height="24" fill="white" transform="translate(14 13)"/>
</clipPath>
</defs>
</svg>
