<svg width="37" height="42" viewBox="0 0 37 42" fill="none" xmlns="http://www.w3.org/2000/svg">
<path d="M9.83616 12.8222H13.0655V8.29492H9.83616C8.00523 8.29492 6.24926 9.01989 4.95438 10.3104C3.65951 11.6009 2.93175 13.3513 2.93115 15.1766V19.7039C2.93175 17.8786 3.65951 16.1282 4.95438 14.8377C6.24926 13.5472 8.00523 12.8222 9.83616 12.8222Z" fill="url(#paint0_linear_3364_3674)"/>
<path d="M9.83616 21.1182C8.92932 21.1182 8.03136 21.2962 7.19355 21.6422C6.35575 21.9882 5.59452 22.4954 4.95332 23.1347C4.31212 23.774 3.80352 24.533 3.45655 25.3683C3.10959 26.2036 2.93105 27.0988 2.93115 28.0029V33.9062L13.0655 26.1196V21.1182H9.83616Z" fill="url(#paint1_linear_3364_3674)"/>
<path d="M22.063 21.1144L24.5232 21.0829C25.3511 21.0829 26.5552 21.9645 26.5552 23.3465C26.5552 24.7286 25.3511 25.6094 24.5232 25.6094H26.1036C31.0271 25.6094 35.8602 20.857 33.9863 16.7266C33.3061 15.8841 32.5005 15.1503 31.5975 14.5508C30.8191 16.4496 29.503 18.0814 27.8099 19.247C26.1168 20.4125 24.1199 21.0614 22.063 21.1144Z" fill="url(#paint2_linear_3364_3674)"/>
<path d="M2.93115 28.0026C2.93105 27.0985 3.10959 26.2033 3.45655 25.368C3.80352 24.5327 4.31212 23.7737 4.95332 23.1344C5.59452 22.4951 6.35575 21.9879 7.19356 21.6419C8.03136 21.2959 8.92932 21.1179 9.83616 21.1179H21.788C24.597 21.1179 27.2909 20.0054 29.2772 18.0252C31.2634 16.045 32.3792 13.3593 32.3792 10.5589C32.3792 7.75853 31.2634 5.07282 29.2772 3.09264C27.2909 1.11245 24.597 4.0901e-08 21.788 4.0901e-08H9.83616C8.92936 -9.85086e-05 8.03141 0.177893 7.19361 0.52381C6.35581 0.869727 5.59457 1.37679 4.95336 2.01605C4.31215 2.6553 3.80354 3.41423 3.45656 4.24947C3.10959 5.08472 2.93105 5.97993 2.93115 6.88397V15.177C2.93115 13.3513 3.65864 11.6003 4.95358 10.3093C6.24852 9.0183 8.00484 8.29303 9.83616 8.29303H20.5771C21.405 8.29303 22.6091 9.17463 22.6091 10.5567C22.6091 11.9387 21.405 12.8203 20.5771 12.8203H9.83616C8.00484 12.8203 6.24852 13.5456 4.95358 14.8366C3.65864 16.1276 2.93115 17.8785 2.93115 19.7043V28.0026Z" fill="url(#paint3_linear_3364_3674)"/>
<path d="M2.93115 33.9061H25.7346C27.7325 33.9065 29.6898 33.3436 31.3804 32.2822C33.0711 31.2209 34.4261 29.7045 35.2891 27.9081C36.1521 26.1116 36.4878 24.1085 36.2575 22.13C36.0272 20.1514 35.2402 18.2782 33.9875 16.7266C35.8615 20.8532 31.0283 25.6093 26.1049 25.6093H9.83616C8.00484 25.6093 6.24852 26.3346 4.95358 27.6256C3.65864 28.9166 2.93115 30.6676 2.93115 32.4933V33.9061Z" fill="url(#paint4_linear_3364_3674)"/>
<path d="M2.17875 39.6588C0.728505 39.6588 0 39.2033 0 38.294V38.0074C0 37.0898 0.728505 36.6426 2.17875 36.6426H2.91478C3.15034 36.6426 3.20152 36.7746 3.20152 37.0387C3.20152 37.3028 3.15034 37.4349 2.91478 37.4349H2.15316C1.2922 37.4349 0.968583 37.6847 0.968583 38.0074V38.294C0.968583 38.6091 1.2922 38.8657 2.15316 38.8657H3.89089C5.34113 38.8657 6.06964 39.3211 6.06964 40.2312V40.5981C6.06964 41.515 5.34113 41.9629 3.89089 41.9629H0.286737C0.0511759 41.9629 0 41.8309 0 41.5668C0 41.3027 0.0511759 41.1706 0.286737 41.1706H3.91572C4.77669 41.1706 5.10105 40.9208 5.10105 40.5981V40.2312C5.10105 39.9154 4.77669 39.6588 3.91572 39.6588H2.17875Z" fill="url(#paint5_linear_3364_3674)"/>
<path d="M14.5447 36.9134C14.6149 36.8283 14.704 36.7607 14.805 36.716C14.906 36.6713 15.0161 36.6508 15.1265 36.6561C15.487 36.6561 15.6714 36.8249 15.6714 37.1558V41.6463C15.6714 41.9254 15.502 41.9914 15.1784 41.9914C14.8548 41.9914 14.6847 41.9254 14.6847 41.6463V38.1679L11.7496 41.7123C11.5803 41.9112 11.4252 41.9914 11.1679 41.9914C10.8879 41.9914 10.7043 41.9037 10.5492 41.7123L7.6051 38.1679V41.6463C7.6051 41.9254 7.43576 41.9914 7.11215 41.9914C6.78854 41.9914 6.62598 41.9254 6.62598 41.6463V37.1558C6.62598 36.8249 6.81036 36.6561 7.16333 36.6561C7.27356 36.6519 7.38329 36.6729 7.48412 36.7175C7.58496 36.7621 7.67422 36.8291 7.74508 36.9134L11.1317 40.986L14.5447 36.9134Z" fill="url(#paint6_linear_3364_3674)"/>
<path d="M20.3304 36.8775L23.5402 41.4423C23.5725 41.4925 23.5903 41.5507 23.5914 41.6103C23.5914 41.8309 23.3047 41.9997 23.054 41.9997C22.9919 42.0034 22.9297 41.9916 22.8733 41.9654C22.8168 41.9392 22.7677 41.8995 22.7304 41.8497L21.8619 40.5877H17.7686L16.9521 41.8497C16.916 41.8991 16.8682 41.9387 16.8128 41.965C16.7575 41.9912 16.6964 42.0031 16.6352 41.9997C16.3921 41.9997 16.1084 41.8309 16.1084 41.6036C16.1106 41.5462 16.1283 41.4905 16.1596 41.4423L19.1782 36.8775C19.2881 36.7162 19.4649 36.6201 19.7592 36.6201C20.0535 36.6201 20.2153 36.7162 20.3304 36.8775ZM18.2766 39.7984H21.3171L19.7562 37.516L18.2766 39.7984Z" fill="url(#paint7_linear_3364_3674)"/>
<path d="M24.3718 36.6426H28.511C29.8431 36.6426 30.6747 37.1123 30.6747 37.831V38.7562C30.6747 39.4749 29.8431 39.9446 28.511 39.9446H28.216C27.3475 39.9446 26.9946 39.9371 26.6115 39.9154V39.9304C26.9283 40.0474 27.267 40.1555 28.3854 40.6056L30.16 41.3169C30.2313 41.3365 30.2937 41.3801 30.3365 41.4402C30.3793 41.5004 30.3999 41.5735 30.3948 41.6471C30.3948 41.9119 30.2187 41.9922 29.8943 41.9922C29.7551 41.9922 29.4676 41.9779 29.3133 41.8894L25.007 40.0332V41.6471C25.007 41.9262 24.8377 41.9922 24.514 41.9922C24.1904 41.9922 24.0279 41.9262 24.0279 41.6471V36.9802C24.0256 36.7529 24.1362 36.6426 24.3718 36.6426ZM25.0047 37.4349V39.1666H28.4185C29.4194 39.1666 29.6979 38.9617 29.6979 38.6969V37.9046C29.6979 37.6405 29.4179 37.4349 28.4185 37.4349H25.0047Z" fill="url(#paint8_linear_3364_3674)"/>
<path d="M34.3384 37.4349V41.6471C34.3384 41.9262 34.1691 41.9922 33.8455 41.9922C33.5219 41.9922 33.3593 41.9262 33.3593 41.6471V37.4349H31.1437C30.9081 37.4349 30.8569 37.3028 30.8569 37.0387C30.8569 36.7746 30.9081 36.6426 31.1437 36.6426H36.5623C36.7979 36.6426 36.8491 36.7746 36.8491 37.0387C36.8491 37.3028 36.7979 37.4349 36.5623 37.4349H34.3384Z" fill="url(#paint9_linear_3364_3674)"/>
<defs>
<linearGradient id="paint0_linear_3364_3674" x1="9.95131" y1="4.96285" x2="6.1907" y2="21.7309" gradientUnits="userSpaceOnUse">
<stop stop-color="#00FFAF"/>
<stop offset="0.06" stop-color="#00EDAD"/>
<stop offset="0.32" stop-color="#00A6A7"/>
<stop offset="0.55" stop-color="#006EA2"/>
<stop offset="0.75" stop-color="#00469F"/>
<stop offset="0.91" stop-color="#002D9D"/>
<stop offset="1" stop-color="#00249C"/>
</linearGradient>
<linearGradient id="paint1_linear_3364_3674" x1="10.0589" y1="17.5453" x2="5.92047" y2="36.0005" gradientUnits="userSpaceOnUse">
<stop stop-color="#00FFAF"/>
<stop offset="0.06" stop-color="#00EDAD"/>
<stop offset="0.32" stop-color="#00A6A7"/>
<stop offset="0.55" stop-color="#006EA2"/>
<stop offset="0.75" stop-color="#00469F"/>
<stop offset="0.91" stop-color="#002D9D"/>
<stop offset="1" stop-color="#00249C"/>
</linearGradient>
<linearGradient id="paint2_linear_3364_3674" x1="30.5951" y1="23.0246" x2="25.7746" y2="16.3105" gradientUnits="userSpaceOnUse">
<stop stop-color="#00FFAF"/>
<stop offset="0.06" stop-color="#00EDAD"/>
<stop offset="0.32" stop-color="#00A6A7"/>
<stop offset="0.55" stop-color="#006EA2"/>
<stop offset="0.75" stop-color="#00469F"/>
<stop offset="0.91" stop-color="#002D9D"/>
<stop offset="1" stop-color="#00249C"/>
</linearGradient>
<linearGradient id="paint3_linear_3364_3674" x1="2.93115" y1="14.0013" x2="32.3792" y2="14.0013" gradientUnits="userSpaceOnUse">
<stop stop-color="#00FFAF"/>
<stop offset="0.06" stop-color="#00EDAD"/>
<stop offset="0.32" stop-color="#00A6A7"/>
<stop offset="0.55" stop-color="#006EA2"/>
<stop offset="0.75" stop-color="#00469F"/>
<stop offset="0.91" stop-color="#002D9D"/>
<stop offset="1" stop-color="#00249C"/>
</linearGradient>
<linearGradient id="paint4_linear_3364_3674" x1="2.93115" y1="25.3167" x2="36.3251" y2="25.3167" gradientUnits="userSpaceOnUse">
<stop stop-color="#00FFAF"/>
<stop offset="0.06" stop-color="#00EDAD"/>
<stop offset="0.32" stop-color="#00A6A7"/>
<stop offset="0.55" stop-color="#006EA2"/>
<stop offset="0.75" stop-color="#00469F"/>
<stop offset="0.91" stop-color="#002D9D"/>
<stop offset="1" stop-color="#00249C"/>
</linearGradient>
<linearGradient id="paint5_linear_3364_3674" x1="-0.511761" y1="39.3024" x2="48.1371" y2="39.3024" gradientUnits="userSpaceOnUse">
<stop stop-color="#00FFDD"/>
<stop offset="0.16" stop-color="#2BCAE4"/>
<stop offset="0.39" stop-color="#6383EE"/>
<stop offset="0.6" stop-color="#904BF5"/>
<stop offset="0.78" stop-color="#B123FA"/>
<stop offset="0.91" stop-color="#C50AFE"/>
<stop offset="1" stop-color="#CC01FF"/>
</linearGradient>
<linearGradient id="paint6_linear_3364_3674" x1="-0.511585" y1="39.3241" x2="48.1373" y2="39.3241" gradientUnits="userSpaceOnUse">
<stop stop-color="#00FFDD"/>
<stop offset="0.16" stop-color="#2BCAE4"/>
<stop offset="0.39" stop-color="#6383EE"/>
<stop offset="0.6" stop-color="#904BF5"/>
<stop offset="0.78" stop-color="#B123FA"/>
<stop offset="0.91" stop-color="#C50AFE"/>
<stop offset="1" stop-color="#CC01FF"/>
</linearGradient>
<linearGradient id="paint7_linear_3364_3674" x1="-0.511792" y1="39.3099" x2="48.1371" y2="39.3099" gradientUnits="userSpaceOnUse">
<stop stop-color="#00FFDD"/>
<stop offset="0.16" stop-color="#2BCAE4"/>
<stop offset="0.39" stop-color="#6383EE"/>
<stop offset="0.6" stop-color="#904BF5"/>
<stop offset="0.78" stop-color="#B123FA"/>
<stop offset="0.91" stop-color="#C50AFE"/>
<stop offset="1" stop-color="#CC01FF"/>
</linearGradient>
<linearGradient id="paint8_linear_3364_3674" x1="-0.511833" y1="39.3174" x2="48.1371" y2="39.3174" gradientUnits="userSpaceOnUse">
<stop stop-color="#00FFDD"/>
<stop offset="0.16" stop-color="#2BCAE4"/>
<stop offset="0.39" stop-color="#6383EE"/>
<stop offset="0.6" stop-color="#904BF5"/>
<stop offset="0.78" stop-color="#B123FA"/>
<stop offset="0.91" stop-color="#C50AFE"/>
<stop offset="1" stop-color="#CC01FF"/>
</linearGradient>
<linearGradient id="paint9_linear_3364_3674" x1="-0.511758" y1="39.3174" x2="48.1371" y2="39.3174" gradientUnits="userSpaceOnUse">
<stop stop-color="#00FFDD"/>
<stop offset="0.16" stop-color="#2BCAE4"/>
<stop offset="0.39" stop-color="#6383EE"/>
<stop offset="0.6" stop-color="#904BF5"/>
<stop offset="0.78" stop-color="#B123FA"/>
<stop offset="0.91" stop-color="#C50AFE"/>
<stop offset="1" stop-color="#CC01FF"/>
</linearGradient>
</defs>
</svg>
