<svg width="50" height="50" viewBox="0 0 50 50" fill="none" xmlns="http://www.w3.org/2000/svg">
<rect y="10" width="40" height="40" rx="4" fill="white"/>
<path d="M26 27C26 25.4087 25.3679 23.8826 24.2426 22.7574C23.1174 21.6321 21.5913 21 20 21C18.4087 21 16.8826 21.6321 15.7574 22.7574C14.6321 23.8826 14 25.4087 14 27C14 34 11 36 11 36H29C29 36 26 34 26 27Z" stroke="#333333" stroke-width="2" stroke-linecap="round" stroke-linejoin="round"/>
<path d="M21.7295 40C21.5537 40.3031 21.3014 40.5547 20.9978 40.7295C20.6941 40.9044 20.3499 40.9965 19.9995 40.9965C19.6492 40.9965 19.3049 40.9044 19.0013 40.7295C18.6977 40.5547 18.4453 40.3031 18.2695 40" stroke="#333333" stroke-width="2" stroke-linecap="round" stroke-linejoin="round"/>
<rect x="30" width="20" height="20" rx="10" fill="#7D47EF"/>
</svg>
