<svg width="36" height="36" viewBox="0 0 36 36" fill="none" xmlns="http://www.w3.org/2000/svg">
<circle cx="18" cy="18" r="18" fill="#333333" fill-opacity="0.1"/>
<g clip-path="url(#clip0_292_6)">
<path d="M18 18C20.21 18 22 16.21 22 14C22 11.79 20.21 10 18 10C15.79 10 14 11.79 14 14C14 16.21 15.79 18 18 18ZM18 20C15.33 20 10 21.34 10 24V25C10 25.55 10.45 26 11 26H25C25.55 26 26 25.55 26 25V24C26 21.34 20.67 20 18 20Z" fill="#333333"/>
</g>
<defs>
<clipPath id="clip0_292_6">
<rect width="24" height="24" fill="white" transform="translate(6 6)"/>
</clipPath>
</defs>
</svg>
