<svg width="16" height="11" viewBox="0 0 16 11" fill="none" xmlns="http://www.w3.org/2000/svg">
<path d="M7.99984 0.666992C4.6665 0.666992 1.81984 2.74033 0.666504 5.66699C1.81984 8.59366 4.6665 10.667 7.99984 10.667C11.3332 10.667 14.1798 8.59366 15.3332 5.66699C14.1798 2.74033 11.3332 0.666992 7.99984 0.666992ZM7.99984 9.00033C6.15984 9.00033 4.6665 7.50699 4.6665 5.66699C4.6665 3.82699 6.15984 2.33366 7.99984 2.33366C9.83984 2.33366 11.3332 3.82699 11.3332 5.66699C11.3332 7.50699 9.83984 9.00033 7.99984 9.00033ZM7.99984 3.66699C6.89317 3.66699 5.99984 4.56033 5.99984 5.66699C5.99984 6.77366 6.89317 7.66699 7.99984 7.66699C9.1065 7.66699 9.99984 6.77366 9.99984 5.66699C9.99984 4.56033 9.1065 3.66699 7.99984 3.66699Z" fill="#333333"/>
</svg>
