<svg width="21" height="20" viewBox="0 0 21 20" fill="none" xmlns="http://www.w3.org/2000/svg">
<path d="M19.2897 3.8902L9.28973 13.8902C8.89973 14.2802 8.26973 14.2802 7.87973 13.8902L5.04973 11.0602C4.65973 10.6702 4.65973 10.0402 5.04973 9.6502C5.43973 9.2602 6.06973 9.2602 6.45973 9.6502L8.57973 11.7702L17.8697 2.4802C18.2597 2.0902 18.8897 2.0902 19.2797 2.4802C19.6797 2.8702 19.6797 3.5002 19.2897 3.8902ZM13.7697 0.740203C12.0797 0.0502028 10.1597 -0.189797 8.15973 0.170203C4.08973 0.900203 0.839733 4.1802 0.149733 8.2502C-0.990267 15.0002 4.62973 20.7802 11.3397 19.9102C15.2997 19.4002 18.6197 16.4502 19.6597 12.6002C20.0597 11.1302 20.0997 9.7102 19.8697 8.3802C19.7397 7.5802 18.7497 7.2702 18.1697 7.8402C17.9397 8.0702 17.8397 8.4102 17.8997 8.7302C18.1197 10.0602 18.0197 11.4802 17.3797 12.9902C16.2197 15.7002 13.6997 17.6902 10.7697 17.9602C5.66973 18.4302 1.43973 14.1102 2.06973 8.9802C2.49973 5.4402 5.34973 2.5602 8.87973 2.0702C10.6097 1.8302 12.2497 2.1602 13.6497 2.8802C14.0397 3.0802 14.5097 3.0102 14.8197 2.7002C15.2997 2.2202 15.1797 1.4102 14.5797 1.1002C14.3097 0.980203 14.0397 0.850203 13.7697 0.740203Z" fill="#344054"/>
</svg>
