<svg width="21" height="20" viewBox="0 0 21 20" fill="none" xmlns="http://www.w3.org/2000/svg">
<path d="M19.2902 3.88996L9.29022 13.89C8.90022 14.28 8.27022 14.28 7.88022 13.89L5.05022 11.06C4.66022 10.67 4.66022 10.04 5.05022 9.64996C5.44022 9.25996 6.07022 9.25996 6.46022 9.64996L8.58022 11.77L17.8702 2.47996C18.2602 2.08996 18.8902 2.08996 19.2802 2.47996C19.6802 2.86996 19.6802 3.49996 19.2902 3.88996ZM13.7702 0.739959C12.0802 0.0499586 10.1602 -0.190041 8.16022 0.169959C4.09022 0.899959 0.840221 4.17996 0.150221 8.24996C-0.989779 15 4.63022 20.78 11.3402 19.91C15.3002 19.4 18.6202 16.45 19.6602 12.6C20.0602 11.13 20.1002 9.70996 19.8702 8.37996C19.7402 7.57996 18.7502 7.26996 18.1702 7.83996C17.9402 8.06996 17.8402 8.40996 17.9002 8.72996C18.1202 10.06 18.0202 11.48 17.3802 12.99C16.2202 15.7 13.7002 17.69 10.7702 17.96C5.67022 18.43 1.44022 14.11 2.07022 8.97996C2.50022 5.43996 5.35022 2.55996 8.88022 2.06996C10.6102 1.82996 12.2502 2.15996 13.6502 2.87996C14.0402 3.07996 14.5102 3.00996 14.8202 2.69996C15.3002 2.21996 15.1802 1.40996 14.5802 1.09996C14.3102 0.979959 14.0402 0.849959 13.7702 0.739959Z" fill="#344054"/>
</svg>
