<svg width="14" height="14" viewBox="0 0 14 14" fill="none" xmlns="http://www.w3.org/2000/svg">
<path d="M9.66675 12.9997C9.66675 13.3663 9.96675 13.6663 10.3334 13.6663H12.6201C13.2001 13.6663 13.6734 13.1663 13.6201 12.5863C13.2268 8.45301 10.6001 6.78634 8.33342 6.33301V4.33301C10.5401 4.05301 12.3534 3.09301 13.1801 1.84634C13.6134 1.19967 13.1001 0.333008 12.3201 0.333008H1.68008C0.900083 0.333008 0.38675 1.19967 0.820083 1.84634C1.64675 3.09301 3.46008 4.05301 5.66675 4.33301V6.33301C3.40008 6.78634 0.773417 8.45301 0.380083 12.5863C0.32675 13.1663 0.800083 13.6663 1.38008 13.6663H3.66675C4.03342 13.6663 4.33342 13.3663 4.33342 12.9997C4.33342 12.633 4.03342 12.333 3.66675 12.333H1.75342C2.37342 7.77967 6.18675 7.53301 7.00008 7.53301C7.81342 7.53301 11.6268 7.77967 12.2468 12.333H10.3334C9.96675 12.333 9.66675 12.633 9.66675 12.9997ZM6.66675 13.6263C6.20008 13.513 5.82008 13.133 5.70675 12.6663C5.58675 12.173 5.74675 11.7063 6.06008 11.393C6.42675 11.0263 8.00008 10.3463 8.94675 9.95967C9.22008 9.84634 9.49342 10.1197 9.38008 10.393C8.99342 11.3397 8.31342 12.913 7.94675 13.2797C7.63342 13.5863 7.16675 13.7463 6.66675 13.6263Z" fill="#333333"/>
</svg>
